<svg xmlns="http://www.w3.org/2000/svg" viewBox="0 0 512 512" width="100%" height="100%">
  <rect width="512" height="512" rx="128" fill="#4f46e5" />
  <path d="M 60 380 L 180 260 L 260 320 L 360 210 L 452 380 Z" fill="#ffffff" opacity="0.1" />
  <rect x="24" y="24" width="464" height="464" rx="104" fill="none" stroke="#f59e0b" stroke-width="12" opacity="0.6" />
  <g transform="translate(0, -10)">
    <path d="M 196 180 C 196 120, 316 120, 316 180" fill="none" stroke="#f59e0b" stroke-width="28" stroke-linecap="round" />
    <path d="M 140 185 H 372 L 352 400 C 352 420, 336 436, 316 436 H 196 C 176 436, 160 420, 160 400 Z" fill="#ffffff" />
    <path d="M 196 240 L 256 310 L 316 240 L 328 350 H 296 L 288 290 L 256 328 L 224 290 L 216 350 H 184 Z" fill="#4f46e5" />
    <circle cx="256" cy="380" r="18" fill="#10b981" />
  </g>
</svg>
